<?xml version="1.0" encoding="utf-8"?>
<!-- Generator: Adobe Illustrator 16.0.0, SVG Export Plug-In . SVG Version: 6.00 Build 0)  -->
<!DOCTYPE svg PUBLIC "-//W3C//DTD SVG 1.1//EN" "http://www.w3.org/Graphics/SVG/1.1/DTD/svg11.dtd">
<svg version="1.1" id="Layer_1" xmlns="http://www.w3.org/2000/svg" xmlns:xlink="http://www.w3.org/1999/xlink" x="0px" y="0px"
	 width="256px" height="256px" viewBox="0 0 256 256" enable-background="new 0 0 256 256" xml:space="preserve">
<g>
	<path fill="#BF9A7C" d="M128,227.325c-28.268,0-50.839-4.024-67.085-11.961c-20.487-10.009-31.307-26.178-32.188-48.083
		c-12.306-6.925-20.13-20.155-20.13-34.374c0-21.059,16.606-38.313,37.412-39.354C52.3,76.163,65.044,60.62,82.159,49.546
		c19.831-12.831,45.15-19.613,73.222-19.613c4.765,0,9.676,0.195,14.597,0.579c1.796,0.14,3.276,1.463,3.616,3.231
		c0.341,1.769-0.543,3.547-2.158,4.344c-3.486,1.72-9.511,5.078-14.519,8.104c27.105,7.028,46.939,24.225,54.381,47.455
		c20.167,1.687,36.106,18.708,36.106,39.261c0,14.219-7.825,27.449-20.131,34.374c-0.881,21.905-11.7,38.074-32.188,48.083
		C178.839,223.301,156.268,227.325,128,227.325z"/>
	<path fill="#292929" d="M155.381,33.933c4.626,0,9.396,0.185,14.285,0.567c-6.048,2.983-19.111,10.503-22.914,13.643
		c31.82,5.169,54.521,23.618,61.519,49.367c19.427,0.146,35.134,15.935,35.134,35.397c0,14.061-8.197,26.207-20.074,31.921
		c-0.324,47.183-47.9,58.497-95.33,58.497c-47.43,0-95.005-11.314-95.33-58.497c-11.876-5.714-20.074-17.86-20.074-31.921
		c0-19.553,15.851-35.404,35.404-35.404c0.295,0,0.586,0.015,0.88,0.022C59.793,63.326,97.004,33.933,155.381,33.933
		 M155.381,25.933c-28.845,0-54.916,7.004-75.395,20.255C62.934,57.221,50.03,72.545,43.167,89.771
		c-21.667,2.411-38.57,20.837-38.57,43.137c0,14.909,7.812,28.833,20.256,36.717c0.773,10.907,3.984,20.563,9.57,28.756
		c5.762,8.451,14.084,15.375,24.736,20.578c16.798,8.206,39.959,12.367,68.841,12.367s52.043-4.161,68.841-12.367
		c10.652-5.203,18.975-12.127,24.737-20.578c5.586-8.193,8.796-17.849,9.569-28.756c12.444-7.883,20.257-21.807,20.257-36.717
		c0-21.737-16.185-39.887-37.137-42.944c-7.502-20.728-24.455-36.618-47.441-44.898c2.394-1.333,4.641-2.532,6.379-3.39
		c3.23-1.593,4.998-5.149,4.316-8.687c-0.681-3.537-3.642-6.183-7.232-6.463C165.265,26.132,160.249,25.933,155.381,25.933
		L155.381,25.933z"/>
</g>
<circle fill="#BF9A7C" cx="208" cy="132.907" r="35.404"/>
<circle fill="#80634C" cx="208" cy="132.907" r="22.5"/>
<circle fill="#BF9A7C" cx="48" cy="132.907" r="35.404"/>
<circle fill="#80634C" cx="48" cy="132.907" r="22.5"/>
<path fill="#BF9A7C" d="M223.338,164.346c0,47.592-47.746,58.979-95.338,58.979c-47.593,0-95.338-11.388-95.338-58.979
	c0-9.938,6.005-19.012,14.384-31.347C36.381,83.887,82.167,27.667,169.666,34.5c-6.048,2.983-19.111,10.503-22.914,13.643
	c44.615,7.248,71.328,40.587,61.919,83.578C216,144.334,223.338,154.014,223.338,164.346z"/>
<path fill="#D9BF8D" d="M128,97.503C190.25,77.75,205,131.72,173,157c18,21,17.25,61.125-45,61.125S67.154,178.5,83,157
	C54.25,131.72,62,79.25,128,97.503z"/>
<ellipse fill="#292929" cx="98" cy="128.205" rx="15.156" ry="17.702"/>
<ellipse fill="#292929" cx="158" cy="128.205" rx="15.156" ry="17.702"/>
<path fill="#292929" d="M158.014,182.671c0,13.022-13.438,19.579-30.014,19.579s-30.013-6.557-30.013-19.579
	s13.437-6.173,30.013-6.173S158.014,169.648,158.014,182.671z"/>
</svg>
