<?xml version="1.0" encoding="utf-8"?>
<!-- Generator: Adobe Illustrator 16.0.0, SVG Export Plug-In . SVG Version: 6.00 Build 0)  -->
<!DOCTYPE svg PUBLIC "-//W3C//DTD SVG 1.1//EN" "http://www.w3.org/Graphics/SVG/1.1/DTD/svg11.dtd">
<svg version="1.1" id="Layer_1" xmlns="http://www.w3.org/2000/svg" xmlns:xlink="http://www.w3.org/1999/xlink" x="0px" y="0px"
	 width="256px" height="256px" viewBox="0 0 256 256" enable-background="new 0 0 256 256" xml:space="preserve">
<polygon fill="#FFCF6E" points="128,3 147.508,29.922 175.836,12.516 183.557,44.852 216.387,39.611 211.146,72.443 243.484,80.164 
	226.081,108.489 253,128 226.081,147.511 243.484,175.836 211.146,183.557 216.387,216.389 183.557,211.148 175.836,243.484 
	147.508,226.078 128,253 108.492,226.078 80.165,243.484 72.443,211.148 39.612,216.389 44.853,183.557 12.516,175.836 
	29.921,147.511 3,128 29.921,108.489 12.516,80.164 44.853,72.443 39.612,39.611 72.443,44.852 80.165,12.516 108.492,29.922 "/>
<circle fill="#FF9E6F" cx="128" cy="128" r="71.99"/>
</svg>
