<?xml version="1.0" encoding="utf-8"?>
<!-- Generator: Adobe Illustrator 16.0.0, SVG Export Plug-In . SVG Version: 6.00 Build 0)  -->
<!DOCTYPE svg PUBLIC "-//W3C//DTD SVG 1.1//EN" "http://www.w3.org/Graphics/SVG/1.1/DTD/svg11.dtd">
<svg version="1.1" id="Layer_1" xmlns="http://www.w3.org/2000/svg" xmlns:xlink="http://www.w3.org/1999/xlink" x="0px" y="0px"
	 width="800px" height="800px" viewBox="0 0 800 800" enable-background="new 0 0 800 800" xml:space="preserve">
<path fill="#29AFCB" stroke="#29AFCB" stroke-width="30" stroke-miterlimit="10" d="M276.618,246.26
	c-27.723-15.437-59.808-23.263-95.365-23.263h-115v370h115c35.571,0,67.657-7.827,95.366-23.264
	c27.826-15.498,49.968-37.372,65.81-65.013c15.809-27.575,23.825-60.117,23.825-96.724c0-36.598-8.016-69.14-23.825-96.723
	C326.587,283.64,304.446,261.767,276.618,246.26z M181.253,530.496h-52.5v-245h52.5c18.355,0,35.335,2.896,50.464,8.604
	c14.948,5.65,27.907,13.816,38.515,24.267c10.594,10.444,18.903,23.313,24.696,38.241c5.855,15.116,8.825,32.405,8.825,51.387
	c0,18.989-2.969,36.278-8.823,51.384c-5.79,14.929-14.1,27.797-24.695,38.243c-10.622,10.465-23.579,18.63-38.516,24.269
	C216.607,527.602,199.627,530.496,181.253,530.496z"/>
<polygon fill="#29AFCB" stroke="#29AFCB" stroke-width="30" stroke-miterlimit="10" points="671.25,222.997 671.25,468.513 
	406.25,190.513 406.25,592.996 468.75,592.996 468.75,347.48 733.75,625.479 733.75,222.997 "/>
</svg>
