<?xml version="1.0" encoding="utf-8"?>
<!-- Generator: Adobe Illustrator 16.0.0, SVG Export Plug-In . SVG Version: 6.00 Build 0)  -->
<!DOCTYPE svg PUBLIC "-//W3C//DTD SVG 1.1//EN" "http://www.w3.org/Graphics/SVG/1.1/DTD/svg11.dtd">
<svg version="1.1" id="Layer_1" xmlns="http://www.w3.org/2000/svg" xmlns:xlink="http://www.w3.org/1999/xlink" x="0px" y="0px"
	 width="800px" height="800px" viewBox="0 0 800 800" enable-background="new 0 0 800 800" xml:space="preserve">
<title>linkedin</title>
<g id="Layer_2">
	<g id="icons_Q2">
		<path d="M741.854,0.036H60.15C28.057-1.072,1.142,24.045,0.034,56.136C0.011,56.815,0,57.496,0,58.175v683.65
			C-0.019,773.935,25.998,799.98,58.111,800c0.68,0,1.359-0.012,2.039-0.035h681.703c32.113,0,58.146-26.03,58.146-58.14l0,0V58.175
			C800,26.065,773.967,0.036,741.854,0.036L741.854,0.036z M238.597,681.68H118.296V300.761h120.301V681.68z M178.446,248.635
			c-37.972-1.085-68.187-32.186-68.17-70.169c0.019-37.646,30.556-68.149,68.204-68.13c37.622,0.02,68.117,30.511,68.136,68.13
			C246.632,216.45,216.418,247.55,178.446,248.635L178.446,248.635z M681.703,681.68H563.408V495.23
			c0-44.107,0-100.242-62.156-100.242c-62.154,0-70.175,48.116-70.175,98.236V681.68H312.782V300.761h112.28v52.125h2.005
			c23.012-39.926,66.226-63.846,112.28-62.15c120.301,0,142.355,78.188,142.355,182.441V681.68z"/>
	</g>
</g>
</svg>
